<?xml version="1.0" encoding="utf-8"?>
<!DOCTYPE svg PUBLIC "-//W3C//DTD SVG 1.0//EN" "http://www.w3.org/TR/2001/REC-SVG-20010904/DTD/svg10.dtd">
<svg version="1.0" xmlns="http://www.w3.org/2000/svg" width="240px" height="240px" viewBox="0 0 240 240" preserveAspectRatio="xMidYMid meet">
 <g fill="#009cb8">
  <path d="M74.6 227.5 c-62.8 -27.4 -88 -103.6 -53.6 -162.5 37.8 -64.8 126.4 -76.4 179.5 -23.5 22.2 22.1 33.8 49.8 33.8 81 0 44.9 -25.4 84.7 -66.2 103.8 -9.4 4.4 -16.3 5.8 -17.7 3.6 -0.5 -0.8 -1.1 -11.5 -1.4 -23.9 -0.5 -22.3 -0.5 -22.5 -3.2 -27.4 -1.6 -2.7 -2.8 -5 -2.8 -5.2 0 -0.2 1.2 -0.4 2.8 -0.4 4.4 0 16.8 -3.8 23.4 -7.1 12.4 -6.2 20.4 -17.9 23.4 -33.9 3.2 -16.6 0.5 -32.5 -7 -42.3 -2.7 -3.6 -3.1 -4.7 -2.3 -6.8 2.3 -6 0.7 -23.6 -2.6 -27.7 -2.2 -2.8 -15.1 0.9 -25.9 7.4 l-5.7 3.5 -8.8 -1.7 c-10.1 -1.9 -35.1 -1.6 -43.8 0.6 -4.9 1.2 -5.1 1.1 -10.9 -2.4 -7.7 -4.7 -15.6 -7.6 -21.3 -7.9 -4.5 -0.2 -4.6 -0.1 -6 3.8 -2.1 5.8 -2.8 16.6 -1.4 21.9 1.1 4.5 1 4.8 -2.4 9.9 -5.3 7.8 -7.5 16 -7.5 28.1 0 18.3 4.8 31.6 14.8 40.7 8 7.3 23.6 13.8 33.4 13.9 l2.7 0 -2 3.5 c-1.2 2 -2.7 5.4 -3.4 7.7 -1 3.5 -1.8 4.4 -5.1 5.5 -2.3 0.9 -6.4 1.3 -10 1.1 -7.9 -0.5 -12.9 -3.7 -18.4 -11.8 -6.2 -9.1 -14.2 -13.4 -21.4 -11.6 -3.9 1 -3.2 2.8 3.2 8.4 4.4 3.8 7 7.3 10.7 14.2 7.2 13.6 12.6 16.4 29.8 15.8 l9.7 -0.3 0 11.6 c0 7.6 -0.4 11.9 -1.2 12.7 -2 2 -7 1.3 -15.2 -2.3z"/>
 </g>
</svg>